HIERARCHY
ROOT Hips
{
	OFFSET 288.785309 90.821663 355.685303
	CHANNELS 6 Xposition Yposition Zposition Zrotation Yrotation Xrotation 
	JOINT LeftUpLeg
	{
		OFFSET 0.103455 1.857837 10.548512
		CHANNELS 3 Zrotation Yrotation Xrotation
		JOINT LeftLeg
		{
			OFFSET 43.499992 -0.000061 0.000004
			CHANNELS 3 Zrotation Yrotation Xrotation
			JOINT LeftFoot
			{
				OFFSET 42.372192 0.000027 0.000012
				CHANNELS 3 Zrotation Yrotation Xrotation
				JOINT LeftToe
				{
					OFFSET 17.300001 -0.000001 -0.000027
					CHANNELS 3 Zrotation Yrotation Xrotation
					End Site
					{
						OFFSET 0.000000 0.000000 0.000000
					}
				}
			}
		}
	}
	JOINT RightUpLeg
	{
		OFFSET 0.103461 1.857839 -10.548507
		CHANNELS 3 Zrotation Yrotation Xrotation
		JOINT RightLeg
		{
			OFFSET 43.500042 -0.000038 0.000004
			CHANNELS 3 Zrotation Yrotation Xrotation
			JOINT RightFoot
			{
				OFFSET 42.372265 -0.000008 0.000009
				CHANNELS 3 Zrotation Yrotation Xrotation
				JOINT RightToe
				{
					OFFSET 17.300003 -0.000002 0.000008
					CHANNELS 3 Zrotation Yrotation Xrotation
					End Site
					{
						OFFSET 0.000000 0.000000 0.000000
					}
				}
			}
		}
	}
	JOINT Spine
	{
		OFFSET 6.901968 -2.603718 -0.000004
		CHANNELS 3 Zrotation Yrotation Xrotation
		JOINT Spine1
		{
			OFFSET 12.588099 -0.000026 0.000011
			CHANNELS 3 Zrotation Yrotation Xrotation
			JOINT Spine2
			{
				OFFSET 12.343204 0.000013 -0.000006
				CHANNELS 3 Zrotation Yrotation Xrotation
				JOINT Neck
				{
					OFFSET 25.832897 0.000013 -0.000010
					CHANNELS 3 Zrotation Yrotation Xrotation
					JOINT Head
					{
						OFFSET 11.766594 0.000008 0.000009
						CHANNELS 3 Zrotation Yrotation Xrotation
						End Site
						{
							OFFSET 0.000000 0.000000 0.000000
						}
					}
				}
				JOINT LeftShoulder
				{
					OFFSET 19.745893 -1.480358 6.000095
					CHANNELS 3 Zrotation Yrotation Xrotation
					JOINT LeftArm
					{
						OFFSET 11.284145 0.000002 -0.000011
						CHANNELS 3 Zrotation Yrotation Xrotation
						JOINT LeftForeArm
						{
							OFFSET 33.000027 -0.000015 0.000026
							CHANNELS 3 Zrotation Yrotation Xrotation
							JOINT LeftHand
							{
								OFFSET 25.200012 0.000040 -0.000003
								CHANNELS 3 Zrotation Yrotation Xrotation
								End Site
								{
									OFFSET 0.000000 0.000000 0.000000
								}
							}
						}
					}
				}
				JOINT RightShoulder
				{
					OFFSET 19.746094 -1.480360 -6.000064
					CHANNELS 3 Zrotation Yrotation Xrotation
					JOINT RightArm
					{
						OFFSET 11.284170 0.000005 -0.000010
						CHANNELS 3 Zrotation Yrotation Xrotation
						JOINT RightForeArm
						{
							OFFSET 33.000084 0.000016 0.000005
							CHANNELS 3 Zrotation Yrotation Xrotation
							JOINT RightHand
							{
								OFFSET 25.199785 0.000134 0.000429
								CHANNELS 3 Zrotation Yrotation Xrotation
								End Site
								{
									OFFSET 0.000000 0.000000 0.000000
								}
							}
						}
					}
				}
			}
		}
	}
}
MOTION
Frames: 12
Frame Time: 0.033333
288.785309 90.821663 355.685303 89.665576 -1.271549 84.868878 171.013115 -4.679706 169.166041 -22.751314 1.817604 -5.521365 83.954103 2.478617 -6.145940 21.454553 0.003102 -0.000000 171.128354 5.411895 -168.735083 -21.567127 -3.981935 7.085987 85.473766 -2.874169 10.345583 21.454560 -0.003122 -0.000019 5.136952 -0.245328 0.274341 0.231860 -0.487986 0.534565 -0.086237 -0.484672 0.529043 10.646914 6.712709 -5.529286 -20.773901 -0.052616 -4.976791 -45.503605 -83.369986 -136.848591 -7.420458 1.612831 4.118780 -26.755062 -20.064027 1.499064 16.321236 -4.901982 -2.456397 -60.109100 85.265957 122.069687 -11.219931 0.229999 7.851971 -26.353730 11.188331 -0.958768 6.395659 7.563728 -18.651230 
288.790100 90.816856 355.701599 89.665576 -1.271559 84.884082 171.002037 -4.679700 169.178445 -22.783122 1.817605 -5.521373 83.979266 2.478617 -6.145943 21.454553 0.003080 0.000001 171.123723 5.411898 -168.705331 -21.596363 -3.996252 7.076900 85.488936 -2.865224 10.364645 21.454558 -0.003104 -0.000017 5.136942 -0.245324 0.274327 0.236948 -0.491046 0.534567 -0.081159 -0.487769 0.529055 10.651965 6.653798 -5.514602 -20.760584 -0.020616 -4.976787 -45.671170 -83.369986 -136.681620 -7.415197 1.640689 4.090590 -26.767305 -20.058447 1.499063 16.352199 -4.888007 -2.444643 -59.762803 85.296680 122.412631 -11.219930 0.230523 7.849983 -26.340718 11.188330 -0.958765 6.382731 7.523190 -18.693348 
288.796387 90.809624 355.724396 89.665576 -1.271554 84.905289 170.987065 -4.679705 169.196558 -22.829028 1.812617 -5.521374 84.015589 2.478617 -6.141443 21.454553 0.003089 -0.000001 171.116688 5.416700 -168.662164 -21.640619 -4.017773 7.063862 85.512971 -2.852538 10.392028 21.454557 -0.003100 -0.000014 5.136946 -0.251461 0.274336 0.244261 -0.503310 0.534564 -0.073843 -0.500039 0.529049 10.664959 6.627699 -5.502936 -20.753530 0.005789 -4.976787 -45.572381 -83.376522 -136.779360 -7.396155 1.683231 4.046599 -26.782439 -20.052129 1.499077 16.369790 -4.833075 -2.413546 -59.756116 85.328440 122.415841 -11.221511 0.243069 7.819837 -26.319837 11.188330 -0.958762 6.376087 7.480083 -18.734335 
288.802185 90.802399 355.747406 89.665583 -1.271556 84.926879 170.974456 -4.679701 169.214344 -22.874404 1.806492 -5.521367 84.050669 2.478619 -6.136562 21.454553 0.003097 0.000001 171.111511 5.421712 -168.617713 -21.684819 -4.040706 7.050345 85.537498 -2.839372 10.420187 21.454557 -0.003111 -0.000017 5.136946 -0.259521 0.274330 0.252225 -0.519467 0.534574 -0.065874 -0.516161 0.529048 10.678002 6.636940 -5.498730 -20.752741 0.009670 -4.973714 -45.346507 -83.386276 -137.003418 -7.382792 1.719092 4.016624 -26.792942 -20.046197 1.499058 16.375589 -4.725445 -2.345631 -59.957689 85.350208 122.212479 -11.233038 0.259595 7.756952 -26.301344 11.189860 -0.958774 6.391262 7.479105 -18.737278 
288.808197 90.796158 355.769501 89.665576 -1.271559 84.949180 170.962845 -4.677395 169.231529 -22.913423 1.800481 -5.521364 84.078809 2.478625 -6.131323 21.454551 0.003096 -0.000000 171.105350 5.429900 -168.572880 -21.727112 -4.063599 7.036008 85.560202 -2.825439 10.448603 21.454555 -0.003106 -0.000015 5.136942 -0.268539 0.274332 0.259825 -0.537545 0.534566 -0.058284 -0.534211 0.529047 10.686451 6.658605 -5.497516 -20.754862 0.001474 -4.967072 -45.154346 -83.397996 -137.193625 -7.381866 1.736757 4.019154 -26.795792 -20.040414 1.499063 16.388006 -4.624874 -2.317010 -60.176576 85.364981 121.992192 -11.250340 0.268618 7.692800 -26.289181 11.200474 -0.958767 6.399773 7.519255 -18.731529 
288.814606 90.791634 355.790802 89.669490 -1.276448 84.971911 170.955072 -4.670206 169.247266 -22.937992 1.794946 -5.521369 84.096957 2.478623 -6.125142 21.454548 0.003088 -0.000000 171.099053 5.441892 -168.528894 -21.763901 -4.085134 7.020333 85.578534 -2.810262 10.476768 21.454558 -0.003107 -0.000015 5.137486 -0.277262 0.274332 0.262326 -0.555012 0.534571 -0.055777 -0.551663 0.532195 10.705498 6.666808 -5.492999 -20.762858 -0.002122 -4.961285 -45.020031 -83.418139 -137.325489 -7.385276 1.732201 4.058378 -26.794526 -20.028502 1.499065 16.412760 -4.607493 -2.380899 -60.177976 85.390233 121.988203 -11.254649 0.273288 7.632427 -26.284557 11.216058 -0.958771 6.395894 7.555841 -18.730141 
288.821198 90.789650 355.811615 89.675821 -1.282694 84.995660 170.957313 -4.659001 169.262470 -22.940215 1.788822 -5.521355 84.102073 2.478624 -6.117340 21.454557 0.003095 -0.000001 171.096922 5.456808 -168.487667 -21.790120 -4.103932 7.003983 85.589531 -2.794168 10.504124 21.454560 -0.003110 -0.000017 5.138029 -0.286268 0.274341 0.262782 -0.573015 0.534565 -0.055318 -0.569655 0.534334 10.732264 6.673982 -5.487219 -20.770400 -0.007821 -4.954022 -44.813141 -83.447700 -137.528741 -7.387375 1.714221 4.115291 -26.795981 -20.006355 1.499057 16.450171 -4.698134 -2.514789 -60.029037 85.427908 122.133249 -11.239659 0.278175 7.582228 -26.289832 11.225499 -0.958777 6.390381 7.584674 -18.714785 
288.827698 90.789963 355.831512 89.681135 -1.291541 85.020576 170.959772 -4.647904 169.273616 -22.929322 1.784026 -5.516208 84.099013 2.478621 -6.108331 21.454551 0.003097 -0.000000 171.096771 5.471399 -168.451453 -21.804377 -4.118800 6.987060 85.591518 -2.777086 10.530501 21.454560 -0.003111 -0.000018 5.138584 -0.294733 0.274336 0.261921 -0.589930 0.534564 -0.056202 -0.586572 0.536057 10.754084 6.676512 -5.478835 -20.760980 -0.011409 -4.944950 -44.569877 -83.480765 -137.767975 -7.381213 1.688501 4.167445 -26.803848 -19.990666 1.499059 16.474298 -4.790083 -2.594985 -59.728372 85.482775 122.428122 -11.201310 0.294066 7.545934 -26.306141 11.216882 -0.958757 6.392336 7.604817 -18.694894 
288.833191 90.792213 355.849396 89.678041 -1.307854 85.047699 170.952900 -4.644739 169.276171 -22.922564 1.783442 -5.504007 84.095420 2.478618 -6.099161 21.454553 0.003098 0.000001 171.097318 5.476297 -168.431386 -21.803665 -4.125035 6.979329 85.581287 -2.765842 10.555218 21.454557 -0.003103 -0.000015 5.139148 -0.300608 0.274341 0.260415 -0.601691 0.534562 -0.057689 -0.598316 0.537554 10.763095 6.670274 -5.473949 -20.735928 -0.016998 -4.938844 -44.329611 -83.510729 -138.004409 -7.374383 1.664792 4.199711 -26.820782 -19.986906 1.499061 16.487501 -4.857063 -2.616241 -59.488386 85.526522 122.663531 -11.181750 0.320070 7.534998 -26.323346 11.196050 -0.958785 6.391441 7.614134 -18.690866 
288.839294 90.794472 355.866211 89.670241 -1.325687 85.075805 170.936658 -4.644620 169.279135 -22.930695 1.782968 -5.490579 84.098432 2.478626 -6.089946 21.454551 0.003097 -0.000001 171.097318 5.476301 -168.425443 -21.801646 -4.125714 6.980735 85.566499 -2.760497 10.580594 21.454560 -0.003107 -0.000017 5.139690 -0.304731 0.274325 0.259031 -0.609916 0.534568 -0.059077 -0.606539 0.539059 10.747596 6.659087 -5.475092 -20.687045 -0.035090 -4.932770 -44.114744 -83.534101 -138.216159 -7.367435 1.649500 4.201733 -26.851282 -19.989810 1.499068 16.500455 -4.903400 -2.635434 -59.380606 85.546883 122.769345 -11.194728 0.344273 7.563409 -26.342522 11.190518 -0.958768 6.352987 7.624351 -18.758111 
288.847900 90.795143 355.882904 89.665091 -1.337312 85.102313 170.920320 -4.646583 169.295801 -22.951922 1.778540 -5.485803 84.108076 2.478617 -6.081725 21.454553 0.003100 -0.000001 171.095528 5.478735 -168.425362 -21.813973 -4.127540 6.986883 85.555769 -2.758253 10.608773 21.454560 -0.003107 -0.000016 5.140228 -0.308596 0.274325 0.258441 -0.618110 0.536141 -0.059653 -0.614729 0.540511 10.737090 6.640883 -5.468778 -20.647979 -0.052279 -4.920490 -43.959627 -83.552229 -138.368841 -7.364456 1.640737 4.182587 -26.887600 -20.000327 1.499071 16.506959 -4.945127 -2.648563 -59.290318 85.559437 122.858110 -11.217060 0.362850 7.640124 -26.370425 11.223783 -0.958768 6.309825 7.563864 -18.822883 
288.857391 90.794823 355.898895 89.660276 -1.346984 85.127400 170.901852 -4.649599 169.310814 -22.981170 1.773437 -5.480604 84.121819 2.478621 -6.072983 21.454555 0.003094 -0.000000 171.090051 5.482259 -168.427971 -21.835464 -4.129970 7.001600 85.546835 -2.761963 10.638330 21.454553 -0.003116 -0.000019 5.140742 -0.311534 0.274335 0.259398 -0.623522 0.538337 -0.058706 -0.620132 0.542551 10.733179 6.602240 -5.452892 -20.616684 -0.059150 -4.905295 -43.941879 -83.565322 -138.385261 -7.376609 1.640856 4.155252 -26.925048 -20.020709 1.499062 16.511224 -5.001714 -2.644388 -59.198281 85.564778 122.949648 -11.245969 0.390899 7.730404 -26.386575 11.231730 -0.958774 6.250815 7.568275 -18.922870 
